<svg width="56" height="62" viewBox="0 0 56 62" fill="none" xmlns="http://www.w3.org/2000/svg">
<path d="M34.6429 24.9107H8.07143C5.62562 24.9107 3.64286 26.8935 3.64286 29.3393V50.375C3.64286 55.2668 7.60833 59.2321 12.5 59.2321H30.2143C35.1059 59.2321 39.0714 55.2668 39.0714 50.375V29.3393C39.0714 26.8935 37.0887 24.9107 34.6429 24.9107Z" fill="#FDDC5C"/>
<path fill-rule="evenodd" clip-rule="evenodd" d="M12.0761 18.0937C10.6438 16.9478 10.4115 14.8576 11.5574 13.4253C12.0049 12.8659 12.1542 12.5378 12.2004 12.3924C12.1536 12.3065 12.0017 12.0587 11.5272 11.4473L11.4305 11.3237C10.8927 10.6377 9.80756 9.25376 9.52055 7.42658C9.17348 5.21757 10.0257 3.16137 11.5574 1.24667C12.7034 -0.185734 14.7935 -0.417974 16.2259 0.727951C17.6583 1.87387 17.8905 3.96402 16.7447 5.39643C16.2971 5.95576 16.1479 6.28392 16.1017 6.42922C16.1485 6.51523 16.3003 6.76291 16.7749 7.37437L16.8715 7.49801C17.4094 8.18391 18.4945 9.56788 18.7816 11.3951C19.1286 13.6041 18.2764 15.6603 16.7447 17.575C15.5987 19.0074 13.5086 19.2397 12.0761 18.0937ZM16.0837 6.51912C16.0837 6.51912 16.0818 6.50455 16.0895 6.47244C16.0895 6.5026 16.0837 6.51912 16.0837 6.51912ZM12.2184 12.3025C12.2184 12.3025 12.2203 12.3171 12.2126 12.3492C12.2126 12.319 12.2184 12.3025 12.2184 12.3025ZM8.07143 22.143C4.09696 22.143 0.875 25.3649 0.875 29.3394V50.375C0.875 56.7955 6.07968 62 12.5 62H30.2143C35.6808 62 40.266 58.2269 41.5076 53.1429H42.3929C49.7306 53.1429 55.6786 47.1948 55.6786 39.8573C55.6786 32.5197 49.7306 26.5716 42.3929 26.5716H41.2879C40.2032 23.9709 37.6365 22.143 34.6429 22.143H8.07143ZM41.8393 33.2144V46.5H42.3929C46.0615 46.5 49.0357 43.526 49.0357 39.8573C49.0357 36.1885 46.0615 33.2144 42.3929 33.2144H41.8393ZM6.41071 29.3394C6.41071 28.4222 7.15423 27.6787 8.07143 27.6787H34.6429C35.5601 27.6787 36.3036 28.4222 36.3036 29.3394V50.375C36.3036 53.7381 33.5773 56.4643 30.2143 56.4643H12.5C9.13699 56.4643 6.41071 53.7381 6.41071 50.375V29.3394ZM25.9503 13.4253C24.8044 14.8576 25.0366 16.9478 26.469 18.0937C27.9014 19.2397 29.9916 19.0074 31.1375 17.575C32.6693 15.6603 33.5215 13.6041 33.1744 11.3951C32.8874 9.56788 31.8022 8.18391 31.2644 7.49801L31.1678 7.37437C30.6932 6.76291 30.5414 6.51523 30.4945 6.42922C30.5407 6.28392 30.69 5.95576 31.1375 5.39643C32.2834 3.96402 32.0512 1.87387 30.6188 0.727951C29.1864 -0.417974 27.0962 -0.185734 25.9503 1.24667C24.4185 3.16137 23.5663 5.21757 23.9134 7.42658C24.2004 9.25376 25.2856 10.6377 25.8234 11.3237L25.92 11.4473C26.3946 12.0587 26.5464 12.3065 26.5933 12.3924C26.5471 12.5378 26.3978 12.8659 25.9503 13.4253ZM30.4765 6.51912C30.4765 6.51912 30.4746 6.50455 30.4823 6.47244C30.4823 6.5026 30.4765 6.51912 30.4765 6.51912ZM26.6112 12.3025C26.6112 12.3025 26.6131 12.3171 26.6054 12.3492C26.6054 12.319 26.6112 12.3025 26.6112 12.3025Z" fill="#0C098C"/>
</svg>
